<svg xmlns="http://www.w3.org/2000/svg" width="358" height="55" viewBox="0 0 358 55" fill="none"><g clip-path="url(#clip0_41_261)"><path d="M60.4 21.2998V0.299805H71.8C74.2 0.299805 76.2 0.899805 77.7 2.0998C78.6 2.7998 79.1 3.6998 79.1 3.6998C79.4 4.1998 79.8 4.9998 79.9 6.0998C79.9 6.9998 79.7 7.6998 79.5 7.9998C79.2 8.5998 78.9 9.0998 78.8 9.1998C78.7 9.2998 78.4 9.7998 77.8 10.1998C77.5 10.3998 77.2 10.5998 76.7 10.7998C75.8 11.1998 74.9 11.4998 74 11.6998L80.3 21.2998H77.1L71.3 12.0998L63 12.1998V21.2998H60.4ZM63.1 9.9998L71.4 9.8998C72.3 9.8998 73.1 9.7998 74 9.5998C74.7 9.39981 75.2 9.0998 75.8 8.7998C75.9 8.6998 76.1 8.5998 76.3 8.3998C77 7.5998 77.2 6.6998 77.2 6.3998C77.2 6.0998 77.3 5.4998 77 4.7998C76.7 4.0998 76.1 3.6998 75.8 3.4998C74.2 2.3998 72.3 2.5998 71.6 2.5998H63.2L63.1 9.9998Z" fill="white"></path><path d="M96.4 21.6C94.6 21.6 93 21.3 91.5 20.8C90 20.2 88.7 19.5 87.7 18.5C86.6 17.5 85.8 16.4 85.2 15C84.6 13.6 84.3 12.3 84.3 10.8C84.3 9.3 84.6 7.9 85.2 6.6C85.8 5.3 86.6 4.2 87.7 3.2C88.8 2.2 90 1.4 91.5 0.9C93 0.3 94.6 0 96.4 0C98.2 0 99.8 0.3 101.3 0.8C102.8 1.4 104.1 2.1 105.1 3.1C106.2 4.1 107 5.2 107.6 6.5C108.2 7.8 108.5 9.2 108.5 10.7C108.5 12.2 108.2 13.6 107.6 14.9C107 16.2 106.2 17.4 105.1 18.4C104 19.4 102.8 20.2 101.3 20.7C99.8 21.3 98.2 21.6 96.4 21.6ZM96.4 19.2C98.3 19.2 100 18.8 101.4 18.1C102.8 17.3 103.9 16.3 104.6 15C105.4 13.7 105.7 12.3 105.7 10.7C105.7 9.1 105.3 7.7 104.6 6.4C103.8 5.1 102.8 4.1 101.4 3.4C100 2.6 98.3 2.3 96.4 2.3C94.5 2.3 92.8 2.7 91.4 3.4C90 4.2 88.9 5.2 88.1 6.4C87.4 7.8 87 9.2 87 10.8C87 12.4 87.4 13.8 88.1 15.1C88.9 16.4 89.9 17.4 91.4 18.2C92.8 18.9 94.5 19.2 96.4 19.2Z" fill="white"></path><path d="M112.1 21.2998V0.299805H115.2L123.7 10.2998L132.1 0.299805H135.2V21.3998H132.5V3.8998L123.7 13.8998L114.7 3.8998V21.2998H112.1Z" fill="white"></path><path d="M139.5 21.3002L150.2 0.200195H153.8L164.5 21.3002H161.3L158.2 15.2002H145.7L142.6 21.3002H139.5ZM146.9 13.0002H157.2L152 2.7002L146.9 13.0002Z" fill="white"></path><path d="M167.9 21.2998V0.299805H171L185.7 17.9998V0.299805H188.4V21.3998H185.3L170.6 3.4998V21.2998H167.9Z" fill="white"></path><path d="M207.5 21.2998V0.299805H217.5C218.9 0.299805 220.3 0.499805 221.6 0.999805C222.9 1.4998 224.1 2.1998 225.1 3.0998C226.1 3.9998 226.9 5.0998 227.5 6.3998C228.1 7.6998 228.4 9.1998 228.4 10.7998C228.4 12.3998 228.1 13.8998 227.5 15.1998C226.9 16.4998 226.1 17.5998 225.1 18.4998C224.1 19.3998 222.9 20.0998 221.6 20.5998C220.3 21.0998 218.9 21.2998 217.5 21.2998H207.5ZM210.2 19.0998H217.4C219.1 19.0998 220.6 18.6998 221.8 17.9998C223 17.1998 224 16.1998 224.7 14.9998C225.4 13.6998 225.7 12.3998 225.7 10.8998C225.7 9.3998 225.4 7.9998 224.7 6.7998C224 5.4998 223 4.4998 221.8 3.7998C220.6 2.9998 219.1 2.6998 217.4 2.6998H210.2V19.0998Z" fill="white"></path><path d="M252.1 2.4998V0.299805H234.6V21.3998H252.1V18.9998H237.3V10.7998H247.1V8.4998H237.3V2.4998H252.1Z" fill="white"></path><path d="M257.7 21.2998V0.299805H260.6L274.3 17.9998V0.299805H276.8V21.3998H273.9L260.2 3.4998V21.2998H257.7Z" fill="white"></path><path d="M289.9 21.2998V2.4998H281.6V0.299805H300.9V2.5998H292.6V21.3998H289.9V21.2998Z" fill="white"></path><path d="M66.6 52.1999H67.9L67.8 52.3999C67.6 52.8999 67.4 53.2999 67 53.5999C66.7 53.8999 66.2 54.1999 65.7 54.3999C65.2 54.5999 64.6 54.6999 64 54.6999C63.2 54.6999 62.5 54.4999 61.9 54.1999C61.3 53.7999 60.8 53.3999 60.5 52.7999C60.2 52.1999 60 51.5999 60 50.7999C60 50.0999 60.2 49.3999 60.5 48.7999C60.8 48.1999 61.3 47.6999 61.9 47.3999C62.5 47.0999 63.2 46.8999 64 46.8999C64.6 46.8999 65.2 46.9999 65.7 47.1999C66.2 47.3999 66.6 47.6999 67 47.9999C67.4 48.2999 67.6 48.7999 67.8 49.1999L67.9 49.3999H66.6V49.2999C66.4 48.8999 66.1 48.4999 65.7 48.2999C65.3 47.9999 64.8 47.8999 64.2 47.8999C63.6 47.8999 63.1 47.9999 62.6 48.2999C62.2 48.4999 61.9 48.8999 61.6 49.2999C61.4 49.6999 61.3 50.1999 61.3 50.6999C61.3 51.1999 61.4 51.6999 61.6 52.0999C61.8 52.4999 62.1 52.8999 62.6 53.0999C63 53.2999 63.6 53.4999 64.2 53.4999C64.8 53.4999 65.4 53.3999 65.7 53.0999C66 52.9999 66.3 52.6999 66.6 52.1999Z" fill="white"></path><path d="M77.2 53.6V54.7H71.7V47H72.9V53.6H77.2Z" fill="white"></path><path d="M83.4 45.2002L81.8 46.6002H80.8L81.7 45.2002H83.4Z" fill="white"></path><path d="M82 47H80.8V54.6H82V47Z" fill="white"></path><path d="M93.7 47V54.7H92.4L87.7 48.8V54.7H86.5V47H87.8L87.9 47.1L92.5 52.9V47H93.7Z" fill="white"></path><path d="M99.4 47H98.2V54.6H99.4V47Z" fill="white"></path><path d="M111.3 52.1999L111.2 52.3999C111 52.8999 110.8 53.2999 110.4 53.5999C110.1 53.9999 109.6 54.1999 109.1 54.3999C108.6 54.5999 108 54.6999 107.4 54.6999C106.6 54.6999 105.9 54.4999 105.3 54.1999C104.7 53.8999 104.2 53.3999 103.9 52.7999C103.6 52.1999 103.4 51.5999 103.4 50.7999C103.4 50.0999 103.6 49.3999 103.9 48.7999C104.2 48.1999 104.7 47.6999 105.3 47.3999C105.9 47.0999 106.6 46.8999 107.4 46.8999C108 46.8999 108.6 46.9999 109.1 47.1999C109.6 47.3999 110 47.6999 110.4 47.9999C110.8 48.3999 111 48.7999 111.2 49.1999L111.3 49.3999H110V49.2999C109.8 48.8999 109.5 48.4999 109.1 48.2999C108.7 48.0999 108.2 47.8999 107.6 47.8999C107 47.8999 106.5 47.9999 106 48.2999C105.6 48.4999 105.2 48.8999 105 49.2999C104.8 49.6999 104.7 50.1999 104.7 50.6999C104.7 51.1999 104.8 51.6999 105 52.0999C105.2 52.4999 105.5 52.8999 106 53.0999C106.4 53.2999 107 53.4999 107.6 53.4999C108.2 53.4999 108.7 53.3999 109.1 53.0999C109.5 52.8999 109.8 52.4999 110 52.0999V51.9999H111.3V52.1999Z" fill="white"></path><path d="M118.8 47H117.5L114 54.6H115.3L116.3 52.5H120L121 54.6H122.3L118.8 47ZM116.7 51.5L118.1 48.4L119.5 51.5H116.7Z" fill="white"></path><path d="M138.2 49.3C138 48.8 137.7 48.4 137.4 48.1C137 47.8 136.6 47.5 136.2 47.3C135.7 47.1 135.3 47 134.8 47H131.3V54.6H134.8C135.3 54.6 135.8 54.5 136.2 54.3C136.6 54.1 137.1 53.9 137.4 53.5C137.7 53.2 138 52.8 138.2 52.3C138.4 51.8 138.5 51.3 138.5 50.7C138.5 50.3 138.4 49.7 138.2 49.3ZM132.4 48.1H134.7C135.2 48.1 135.7 48.2 136.1 48.5C136.5 48.7 136.8 49.1 137 49.5C137.2 49.9 137.3 50.4 137.3 50.9C137.3 51.4 137.2 51.9 137 52.3C136.8 52.7 136.5 53.1 136.1 53.3C135.7 53.5 135.2 53.7 134.7 53.7H132.4V48.1Z" fill="white"></path><path d="M143.7 48.1V50.3H148.2V51.4H143.7V53.6H148.7V54.7H142.5V47H148.7V48.1H143.7Z" fill="white"></path><path d="M159.4 48.1V50.3H163.8V51.4H159.4V53.6H164.3V54.7H158.2V47H164.3V48.1H159.4Z" fill="white"></path><path d="M174.5 52.4999C174.5 53.1999 174.2 53.7999 173.6 54.1999C173 54.5999 172.2 54.7999 171.2 54.7999C170.4 54.7999 169.7 54.6999 169.2 54.4999C168.7 54.2999 168.3 53.9999 168 53.5999C167.7 53.1999 167.6 52.7999 167.5 52.3999V52.1999H168.7V52.2999C168.7 52.5999 168.8 52.8999 169 53.0999C169.2 53.2999 169.5 53.4999 169.8 53.4999C170.2 53.5999 170.6 53.6999 171 53.6999C171.6 53.6999 172.2 53.5999 172.5 53.3999C172.8 53.1999 173 52.8999 173 52.5999C173 52.3999 172.9 52.1999 172.8 52.0999C172.6 51.9999 172.4 51.7999 172.1 51.6999C171.8 51.5999 171.4 51.4999 171.1 51.3999C170.7 51.2999 170.3 51.1999 169.9 51.0999C169.5 50.9999 169.1 50.8999 168.8 50.6999C168.5 50.4999 168.2 50.2999 168 50.0999C167.8 49.7999 167.7 49.4999 167.7 49.0999C167.7 48.3999 168 47.8999 168.5 47.4999C169 47.0999 169.8 46.8999 170.8 46.8999C171.5 46.8999 172.1 46.9999 172.6 47.1999C173.1 47.3999 173.5 47.6999 173.7 47.9999C173.9 48.2999 174.1 48.6999 174.1 49.0999V49.2999H172.9V49.1999C172.9 48.8999 172.7 48.5999 172.4 48.3999C172.1 48.1999 171.6 47.9999 170.9 47.9999C170.5 47.9999 170.1 47.9999 169.9 48.0999C169.6 48.1999 169.4 48.2999 169.3 48.3999C169.2 48.4999 169.1 48.5999 169 48.6999C169 48.7999 168.9 48.8999 168.9 49.0999C168.9 49.2999 169 49.3999 169.1 49.5999C169.3 49.6999 169.5 49.8999 169.8 49.9999C170.1 50.0999 170.5 50.1999 170.9 50.2999C171.3 50.3999 171.7 50.4999 172.1 50.5999C172.5 50.6999 172.9 50.7999 173.2 50.9999C173.5 51.1999 173.8 51.3999 174 51.5999C174.4 51.7999 174.5 52.0999 174.5 52.4999Z" fill="white"></path><path d="M184.3 47V48.1H181.5V54.7H180.3V48.1H177.5V47H184.3Z" fill="white"></path><path d="M189.1 48.1V50.3H193.5V51.4H189.1V53.6H194V54.7H187.9V47H194V48.1H189.1Z" fill="white"></path><path d="M193.1 45.2002L191.5 46.6002H190.4L191.3 45.2002H193.1Z" fill="white"></path><path d="M204.2 47V48.1H201.4V54.7H200.2V48.1H197.4V47H204.2Z" fill="white"></path><path d="M209 47H207.8V54.6H209V47Z" fill="white"></path><path d="M219.6 52.1999H220.9L220.8 52.3999C220.6 52.8999 220.4 53.2999 220 53.5999C219.6 53.9999 219.2 54.1999 218.7 54.3999C218.2 54.5999 217.6 54.6999 217 54.6999C216.2 54.6999 215.5 54.4999 214.9 54.1999C214.3 53.8999 213.8 53.3999 213.5 52.7999C213.2 52.1999 213 51.5999 213 50.7999C213 50.0999 213.2 49.3999 213.5 48.7999C213.8 48.1999 214.3 47.6999 214.9 47.3999C215.5 47.0999 216.2 46.8999 217 46.8999C217.6 46.8999 218.2 46.9999 218.7 47.1999C219.2 47.3999 219.6 47.6999 220 47.9999C220.3 48.3999 220.6 48.7999 220.8 49.1999L220.9 49.3999H219.6V49.2999C219.4 48.8999 219.1 48.4999 218.7 48.2999C218.3 48.0999 217.8 47.8999 217.2 47.8999C216.6 47.8999 216.1 47.9999 215.6 48.2999C215.2 48.4999 214.8 48.8999 214.6 49.2999C214.4 49.6999 214.3 50.1999 214.3 50.6999C214.3 51.1999 214.4 51.6999 214.6 52.0999C214.8 52.4999 215.1 52.8999 215.6 53.0999C216 53.2999 216.6 53.4999 217.2 53.4999C217.8 53.4999 218.4 53.3999 218.7 53.0999C219.1 52.9999 219.4 52.6999 219.6 52.1999Z" fill="white"></path><path d="M228.4 47.1L227 47L223.5 54.6H224.8L225.8 52.5H229.5L230.5 54.6H231.8L228.4 47.1ZM229.1 51.5H226.3L227.7 48.4L229.1 51.5Z" fill="white"></path><path d="M241 54.5002V47.2002H244.3C244.8 47.2002 245.2 47.3002 245.7 47.4002C246.1 47.6002 246.5 47.8002 246.9 48.1002C247.2 48.4002 247.5 48.8002 247.7 49.3002C247.9 49.8002 248 50.3002 248 50.8002C248 51.3002 247.9 51.9002 247.7 52.3002C247.5 52.8002 247.2 53.1002 246.9 53.5002C246.6 53.8002 246.2 54.1002 245.7 54.2002C245.3 54.4002 244.8 54.4002 244.3 54.4002H241V54.5002ZM241.9 53.7002H244.3C244.9 53.7002 245.4 53.6002 245.8 53.3002C246.2 53.0002 246.5 52.7002 246.8 52.2002C247 51.8002 247.1 51.3002 247.1 50.8002C247.1 50.3002 247 49.8002 246.8 49.4002C246.6 49.0002 246.3 48.6002 245.8 48.4002C245.4 48.1002 244.9 48.0002 244.3 48.0002H241.9V53.7002Z" fill="white"></path><path d="M244.3 54.7H240.8V47H244.3C244.8 47 245.3 47.1 245.7 47.3C246.2 47.5 246.6 47.7 246.9 48.1C247.3 48.4 247.5 48.8 247.8 49.3C248 49.8 248.1 50.3 248.1 50.9C248.1 51.5 248 52 247.8 52.5C247.6 53 247.3 53.4 246.9 53.7C246.5 54 246.1 54.3 245.7 54.5C245.3 54.6 244.8 54.7 244.3 54.7ZM241.1 54.4H244.3C244.8 54.4 245.2 54.3 245.6 54.2C246 54 246.4 53.8 246.7 53.5C247 53.2 247.3 52.8 247.5 52.4C247.7 52 247.8 51.5 247.8 50.9C247.8 50.3 247.7 49.8 247.5 49.4C247.3 49 247 48.6 246.7 48.3C246.4 48 246 47.8 245.6 47.6C245.2 47.4 244.7 47.4 244.3 47.4H241.1V54.4ZM244.3 53.9H241.7V47.8H244.3C244.9 47.8 245.4 47.9 245.9 48.2C246.3 48.5 246.7 48.8 246.9 49.3C247.1 49.8 247.3 50.3 247.3 50.8C247.3 51.3 247.2 51.8 246.9 52.3C246.7 52.8 246.3 53.1 245.9 53.4C245.4 53.8 244.9 53.9 244.3 53.9ZM242 53.6H244.3C244.8 53.6 245.3 53.5 245.7 53.2C246.1 52.9 246.4 52.6 246.6 52.2C246.8 51.8 246.9 51.3 246.9 50.8C246.9 50.3 246.8 49.8 246.6 49.4C246.4 49 246.1 48.7 245.7 48.4C245.3 48.2 244.8 48 244.3 48H242V53.6Z" fill="white"></path><path d="M252.3 54.5002V47.2002H258.1V48.0002H253.2V50.5002H257.6V51.3002H253.2V53.8002H258.1V54.6002H252.3V54.5002Z" fill="white"></path><path d="M258.3 54.7H252.2V47H258.3V48.1H253.4V50.3H257.8V51.4H253.4V53.6H258.3V54.7ZM252.4 54.4H257.9V53.9H253V51.1H257.4V50.6H253V47.8H257.9V47.3H252.4V54.4Z" fill="white"></path><path d="M262.3 54.5002V47.2002H263.3L268.2 53.4002V47.2002H269.1V54.5002H268.1L263.2 48.3002V54.5002H262.3Z" fill="white"></path><path d="M269.3 54.7H268L263.3 48.8V54.7H262.1V47H263.4L268.1 52.9V47H269.3V54.7ZM268.2 54.4H269V47.4H268.4V53.9L263.3 47.4H262.5V54.4H263.1V47.9L268.2 54.4Z" fill="white"></path><path d="M275.9 54.5002V48.0002H273.1V47.2002H279.5V48.0002H276.7V54.6002H275.9V54.5002Z" fill="white"></path><path d="M276.9 54.7H275.7V48.1H273V47H279.7V48.1H276.9V54.7ZM276 54.4H276.6V47.8H279.4V47.3H273.3V47.8H276.1V54.4H276Z" fill="white"></path><path d="M281.7 54.5002L285.1 47.2002H286.2L289.6 54.5002H288.6L287.6 52.4002H283.7L282.7 54.5002H281.7ZM284 51.6002H287.2L285.6 48.0002L284 51.6002Z" fill="white"></path><path d="M289.8 54.7001H288.5L287.5 52.6001H283.8L282.8 54.7001H281.5L285 47.1001H286.3V47.2001L289.8 54.7001ZM288.6 54.4001H289.3L286.1 47.4001H285.2L282 54.4001H282.7L283.7 52.3001H287.8L288.6 54.4001ZM287.4 51.8001H283.7L285.6 47.7001L287.4 51.8001ZM284.2 51.5001H287L285.6 48.4001L284.2 51.5001Z" fill="white"></path><path d="M293.4 54.5002V47.2002H294.3V53.7002H298.6V54.5002H293.4Z" fill="white"></path><path d="M298.8 54.7H293.3V47H294.5V53.5H298.8V54.7ZM293.5 54.4H298.4V53.9H294.1V47.4H293.5V54.4Z" fill="white"></path><path d="M3.15876e-06 22.2C0.100003 21.1 75.5 33.9 179.1 33.9C254.7 33.9 316.6 27 357.8 21C316.2 29.2 254.6 38.5 179.6 38.8C79 39.2 -0.0999968 23.3 3.15876e-06 22.2Z" fill="#B5DA48"></path></g><defs><clipPath id="clip0_41_261"><rect width="357.8" height="54.8" fill="white"></rect></clipPath></defs></svg>