<svg width="358" height="55" viewBox="0 0 358 55" fill="none" xmlns="http://www.w3.org/2000/svg">
<g clip-path="url(#clip0_41_382)">
<path d="M60.4 21.3V0.299988H71.8C74.2 0.299988 76.2 0.899988 77.7 2.09999C78.6 2.79999 79.1 3.69999 79.1 3.69999C79.4 4.19999 79.8 4.99999 79.9 6.09999C79.9 6.99999 79.7 7.69999 79.5 7.99999C79.2 8.59999 78.9 9.09999 78.8 9.19999C78.7 9.29999 78.4 9.79999 77.8 10.2C77.5 10.4 77.2 10.6 76.7 10.8C75.8 11.2 74.9 11.5 74 11.7L80.3 21.3H77.1L71.3 12.1L63 12.2V21.3H60.4ZM63.1 9.99999L71.4 9.89999C72.3 9.89999 73.1 9.79999 74 9.59999C74.7 9.39999 75.2 9.09999 75.8 8.79999C75.9 8.69999 76.1 8.59999 76.3 8.39999C77 7.59999 77.2 6.69999 77.2 6.39999C77.2 6.09999 77.3 5.49999 77 4.79999C76.7 4.09999 76.1 3.69999 75.8 3.49999C74.2 2.39999 72.3 2.59999 71.6 2.59999H63.2L63.1 9.99999Z" fill="#4B505B"/>
<path d="M96.4 21.6C94.6 21.6 93 21.3 91.5 20.8C90 20.2 88.7 19.5 87.7 18.5C86.6 17.5 85.8 16.4 85.2 15C84.6 13.6 84.3 12.3 84.3 10.8C84.3 9.3 84.6 7.9 85.2 6.6C85.8 5.3 86.6 4.2 87.7 3.2C88.8 2.2 90 1.4 91.5 0.9C93 0.3 94.6 0 96.4 0C98.2 0 99.8 0.3 101.3 0.8C102.8 1.4 104.1 2.1 105.1 3.1C106.2 4.1 107 5.2 107.6 6.5C108.2 7.8 108.5 9.2 108.5 10.7C108.5 12.2 108.2 13.6 107.6 14.9C107 16.2 106.2 17.4 105.1 18.4C104 19.4 102.8 20.2 101.3 20.7C99.8 21.3 98.2 21.6 96.4 21.6ZM96.4 19.2C98.3 19.2 100 18.8 101.4 18.1C102.8 17.3 103.9 16.3 104.6 15C105.4 13.7 105.7 12.3 105.7 10.7C105.7 9.1 105.3 7.7 104.6 6.4C103.8 5.1 102.8 4.1 101.4 3.4C100 2.6 98.3 2.3 96.4 2.3C94.5 2.3 92.8 2.7 91.4 3.4C90 4.2 88.9 5.2 88.1 6.4C87.4 7.8 87 9.2 87 10.8C87 12.4 87.4 13.8 88.1 15.1C88.9 16.4 89.9 17.4 91.4 18.2C92.8 18.9 94.5 19.2 96.4 19.2Z" fill="#4B505B"/>
<path d="M112.1 21.3V0.299988H115.2L123.7 10.3L132.1 0.299988H135.2V21.4H132.5V3.89999L123.7 13.9L114.7 3.89999V21.3H112.1Z" fill="#4B505B"/>
<path d="M139.5 21.3L150.2 0.200012H153.8L164.5 21.3H161.3L158.2 15.2H145.7L142.6 21.3H139.5ZM146.9 13H157.2L152 2.70001L146.9 13Z" fill="#4B505B"/>
<path d="M167.9 21.3V0.299988H171L185.7 18V0.299988H188.4V21.4H185.3L170.6 3.49999V21.3H167.9Z" fill="#4B505B"/>
<path d="M207.5 21.3V0.299988H217.5C218.9 0.299988 220.3 0.499988 221.6 0.999988C222.9 1.49999 224.1 2.19999 225.1 3.09999C226.1 3.99999 226.9 5.09999 227.5 6.39999C228.1 7.69999 228.4 9.19999 228.4 10.8C228.4 12.4 228.1 13.9 227.5 15.2C226.9 16.5 226.1 17.6 225.1 18.5C224.1 19.4 222.9 20.1 221.6 20.6C220.3 21.1 218.9 21.3 217.5 21.3H207.5ZM210.2 19.1H217.4C219.1 19.1 220.6 18.7 221.8 18C223 17.2 224 16.2 224.7 15C225.4 13.7 225.7 12.4 225.7 10.9C225.7 9.39999 225.4 7.99999 224.7 6.79999C224 5.49999 223 4.49999 221.8 3.79999C220.6 2.99999 219.1 2.69999 217.4 2.69999H210.2V19.1Z" fill="#4B505B"/>
<path d="M252.1 2.49999V0.299988H234.6V21.4H252.1V19H237.3V10.8H247.1V8.49999H237.3V2.49999H252.1Z" fill="#4B505B"/>
<path d="M257.7 21.3V0.299988H260.6L274.3 18V0.299988H276.8V21.4H273.9L260.2 3.49999V21.3H257.7Z" fill="#4B505B"/>
<path d="M289.9 21.3V2.49999H281.6V0.299988H300.9V2.59999H292.6V21.4H289.9V21.3Z" fill="#4B505B"/>
<path d="M66.6 52.2H67.9L67.8 52.4C67.6 52.9 67.4 53.3 67 53.6C66.7 53.9 66.2 54.2 65.7 54.4C65.2 54.6 64.6 54.7 64 54.7C63.2 54.7 62.5 54.5 61.9 54.2C61.3 53.8 60.8 53.4 60.5 52.8C60.2 52.2 60 51.6 60 50.8C60 50.1 60.2 49.4 60.5 48.8C60.8 48.2 61.3 47.7 61.9 47.4C62.5 47.1 63.2 46.9 64 46.9C64.6 46.9 65.2 47 65.7 47.2C66.2 47.4 66.6 47.7 67 48C67.4 48.3 67.6 48.8 67.8 49.2L67.9 49.4H66.6V49.3C66.4 48.9 66.1 48.5 65.7 48.3C65.3 48 64.8 47.9 64.2 47.9C63.6 47.9 63.1 48 62.6 48.3C62.2 48.5 61.9 48.9 61.6 49.3C61.4 49.7 61.3 50.2 61.3 50.7C61.3 51.2 61.4 51.7 61.6 52.1C61.8 52.5 62.1 52.9 62.6 53.1C63 53.3 63.6 53.5 64.2 53.5C64.8 53.5 65.4 53.4 65.7 53.1C66 53 66.3 52.7 66.6 52.2Z" fill="#4B505B"/>
<path d="M77.2 53.6V54.7H71.7V47H72.9V53.6H77.2Z" fill="#4B505B"/>
<path d="M83.4 45.2L81.8 46.6H80.8L81.7 45.2H83.4Z" fill="#4B505B"/>
<path d="M82 47H80.8V54.6H82V47Z" fill="#4B505B"/>
<path d="M93.7 47V54.7H92.4L87.7 48.8V54.7H86.5V47H87.8L87.9 47.1L92.5 52.9V47H93.7Z" fill="#4B505B"/>
<path d="M99.4 47H98.2V54.6H99.4V47Z" fill="#4B505B"/>
<path d="M111.3 52.2L111.2 52.4C111 52.9 110.8 53.3 110.4 53.6C110.1 54 109.6 54.2 109.1 54.4C108.6 54.6 108 54.7 107.4 54.7C106.6 54.7 105.9 54.5 105.3 54.2C104.7 53.9 104.2 53.4 103.9 52.8C103.6 52.2 103.4 51.6 103.4 50.8C103.4 50.1 103.6 49.4 103.9 48.8C104.2 48.2 104.7 47.7 105.3 47.4C105.9 47.1 106.6 46.9 107.4 46.9C108 46.9 108.6 47 109.1 47.2C109.6 47.4 110 47.7 110.4 48C110.8 48.4 111 48.8 111.2 49.2L111.3 49.4H110V49.3C109.8 48.9 109.5 48.5 109.1 48.3C108.7 48.1 108.2 47.9 107.6 47.9C107 47.9 106.5 48 106 48.3C105.6 48.5 105.2 48.9 105 49.3C104.8 49.7 104.7 50.2 104.7 50.7C104.7 51.2 104.8 51.7 105 52.1C105.2 52.5 105.5 52.9 106 53.1C106.4 53.3 107 53.5 107.6 53.5C108.2 53.5 108.7 53.4 109.1 53.1C109.5 52.9 109.8 52.5 110 52.1V52H111.3V52.2Z" fill="#4B505B"/>
<path d="M118.8 47H117.5L114 54.6H115.3L116.3 52.5H120L121 54.6H122.3L118.8 47ZM116.7 51.5L118.1 48.4L119.5 51.5H116.7Z" fill="#4B505B"/>
<path d="M138.2 49.3C138 48.8 137.7 48.4 137.4 48.1C137 47.8 136.6 47.5 136.2 47.3C135.7 47.1 135.3 47 134.8 47H131.3V54.6H134.8C135.3 54.6 135.8 54.5 136.2 54.3C136.6 54.1 137.1 53.9 137.4 53.5C137.7 53.2 138 52.8 138.2 52.3C138.4 51.8 138.5 51.3 138.5 50.7C138.5 50.3 138.4 49.7 138.2 49.3ZM132.4 48.1H134.7C135.2 48.1 135.7 48.2 136.1 48.5C136.5 48.7 136.8 49.1 137 49.5C137.2 49.9 137.3 50.4 137.3 50.9C137.3 51.4 137.2 51.9 137 52.3C136.8 52.7 136.5 53.1 136.1 53.3C135.7 53.5 135.2 53.7 134.7 53.7H132.4V48.1Z" fill="#4B505B"/>
<path d="M143.7 48.1V50.3H148.2V51.4H143.7V53.6H148.7V54.7H142.5V47H148.7V48.1H143.7Z" fill="#4B505B"/>
<path d="M159.4 48.1V50.3H163.8V51.4H159.4V53.6H164.3V54.7H158.2V47H164.3V48.1H159.4Z" fill="#4B505B"/>
<path d="M174.5 52.5C174.5 53.2 174.2 53.8 173.6 54.2C173 54.6 172.2 54.8 171.2 54.8C170.4 54.8 169.7 54.7 169.2 54.5C168.7 54.3 168.3 54 168 53.6C167.7 53.2 167.6 52.8 167.5 52.4V52.2H168.7V52.3C168.7 52.6 168.8 52.9 169 53.1C169.2 53.3 169.5 53.5 169.8 53.5C170.2 53.6 170.6 53.7 171 53.7C171.6 53.7 172.2 53.6 172.5 53.4C172.8 53.2 173 52.9 173 52.6C173 52.4 172.9 52.2 172.8 52.1C172.6 52 172.4 51.8 172.1 51.7C171.8 51.6 171.4 51.5 171.1 51.4C170.7 51.3 170.3 51.2 169.9 51.1C169.5 51 169.1 50.9 168.8 50.7C168.5 50.5 168.2 50.3 168 50.1C167.8 49.8 167.7 49.5 167.7 49.1C167.7 48.4 168 47.9 168.5 47.5C169 47.1 169.8 46.9 170.8 46.9C171.5 46.9 172.1 47 172.6 47.2C173.1 47.4 173.5 47.7 173.7 48C173.9 48.3 174.1 48.7 174.1 49.1V49.3H172.9V49.2C172.9 48.9 172.7 48.6 172.4 48.4C172.1 48.2 171.6 48 170.9 48C170.5 48 170.1 48 169.9 48.1C169.6 48.2 169.4 48.3 169.3 48.4C169.2 48.5 169.1 48.6 169 48.7C169 48.8 168.9 48.9 168.9 49.1C168.9 49.3 169 49.4 169.1 49.6C169.3 49.7 169.5 49.9 169.8 50C170.1 50.1 170.5 50.2 170.9 50.3C171.3 50.4 171.7 50.5 172.1 50.6C172.5 50.7 172.9 50.8 173.2 51C173.5 51.2 173.8 51.4 174 51.6C174.4 51.8 174.5 52.1 174.5 52.5Z" fill="#4B505B"/>
<path d="M184.3 47V48.1H181.5V54.7H180.3V48.1H177.5V47H184.3Z" fill="#4B505B"/>
<path d="M189.1 48.1V50.3H193.5V51.4H189.1V53.6H194V54.7H187.9V47H194V48.1H189.1Z" fill="#4B505B"/>
<path d="M193.1 45.2L191.5 46.6H190.4L191.3 45.2H193.1Z" fill="#4B505B"/>
<path d="M204.2 47V48.1H201.4V54.7H200.2V48.1H197.4V47H204.2Z" fill="#4B505B"/>
<path d="M209 47H207.8V54.6H209V47Z" fill="#4B505B"/>
<path d="M219.6 52.2H220.9L220.8 52.4C220.6 52.9 220.4 53.3 220 53.6C219.6 54 219.2 54.2 218.7 54.4C218.2 54.6 217.6 54.7 217 54.7C216.2 54.7 215.5 54.5 214.9 54.2C214.3 53.9 213.8 53.4 213.5 52.8C213.2 52.2 213 51.6 213 50.8C213 50.1 213.2 49.4 213.5 48.8C213.8 48.2 214.3 47.7 214.9 47.4C215.5 47.1 216.2 46.9 217 46.9C217.6 46.9 218.2 47 218.7 47.2C219.2 47.4 219.6 47.7 220 48C220.3 48.4 220.6 48.8 220.8 49.2L220.9 49.4H219.6V49.3C219.4 48.9 219.1 48.5 218.7 48.3C218.3 48.1 217.8 47.9 217.2 47.9C216.6 47.9 216.1 48 215.6 48.3C215.2 48.5 214.8 48.9 214.6 49.3C214.4 49.7 214.3 50.2 214.3 50.7C214.3 51.2 214.4 51.7 214.6 52.1C214.8 52.5 215.1 52.9 215.6 53.1C216 53.3 216.6 53.5 217.2 53.5C217.8 53.5 218.4 53.4 218.7 53.1C219.1 53 219.4 52.7 219.6 52.2Z" fill="#4B505B"/>
<path d="M228.4 47.1L227 47L223.5 54.6H224.8L225.8 52.5H229.5L230.5 54.6H231.8L228.4 47.1ZM229.1 51.5H226.3L227.7 48.4L229.1 51.5Z" fill="#4B505B"/>
<path d="M241 54.5V47.2H244.3C244.8 47.2 245.2 47.3 245.7 47.4C246.1 47.6 246.5 47.8 246.9 48.1C247.2 48.4 247.5 48.8 247.7 49.3C247.9 49.8 248 50.3 248 50.8C248 51.3 247.9 51.9 247.7 52.3C247.5 52.8 247.2 53.1 246.9 53.5C246.6 53.8 246.2 54.1 245.7 54.2C245.3 54.4 244.8 54.4 244.3 54.4H241V54.5ZM241.9 53.7H244.3C244.9 53.7 245.4 53.6 245.8 53.3C246.2 53 246.5 52.7 246.8 52.2C247 51.8 247.1 51.3 247.1 50.8C247.1 50.3 247 49.8 246.8 49.4C246.6 49 246.3 48.6 245.8 48.4C245.4 48.1 244.9 48 244.3 48H241.9V53.7Z" fill="#4B505B"/>
<path d="M244.3 54.7H240.8V47H244.3C244.8 47 245.3 47.1 245.7 47.3C246.2 47.5 246.6 47.7 246.9 48.1C247.3 48.4 247.5 48.8 247.8 49.3C248 49.8 248.1 50.3 248.1 50.9C248.1 51.5 248 52 247.8 52.5C247.6 53 247.3 53.4 246.9 53.7C246.5 54 246.1 54.3 245.7 54.5C245.3 54.6 244.8 54.7 244.3 54.7ZM241.1 54.4H244.3C244.8 54.4 245.2 54.3 245.6 54.2C246 54 246.4 53.8 246.7 53.5C247 53.2 247.3 52.8 247.5 52.4C247.7 52 247.8 51.5 247.8 50.9C247.8 50.3 247.7 49.8 247.5 49.4C247.3 49 247 48.6 246.7 48.3C246.4 48 246 47.8 245.6 47.6C245.2 47.4 244.7 47.4 244.3 47.4H241.1V54.4ZM244.3 53.9H241.7V47.8H244.3C244.9 47.8 245.4 47.9 245.9 48.2C246.3 48.5 246.7 48.8 246.9 49.3C247.1 49.8 247.3 50.3 247.3 50.8C247.3 51.3 247.2 51.8 246.9 52.3C246.7 52.8 246.3 53.1 245.9 53.4C245.4 53.8 244.9 53.9 244.3 53.9ZM242 53.6H244.3C244.8 53.6 245.3 53.5 245.7 53.2C246.1 52.9 246.4 52.6 246.6 52.2C246.8 51.8 246.9 51.3 246.9 50.8C246.9 50.3 246.8 49.8 246.6 49.4C246.4 49 246.1 48.7 245.7 48.4C245.3 48.2 244.8 48 244.3 48H242V53.6Z" fill="#4B505B"/>
<path d="M252.3 54.5V47.2H258.1V48H253.2V50.5H257.6V51.3H253.2V53.8H258.1V54.6H252.3V54.5Z" fill="#4B505B"/>
<path d="M258.3 54.7H252.2V47H258.3V48.1H253.4V50.3H257.8V51.4H253.4V53.6H258.3V54.7ZM252.4 54.4H257.9V53.9H253V51.1H257.4V50.6H253V47.8H257.9V47.3H252.4V54.4Z" fill="#4B505B"/>
<path d="M262.3 54.5V47.2H263.3L268.2 53.4V47.2H269.1V54.5H268.1L263.2 48.3V54.5H262.3Z" fill="#4B505B"/>
<path d="M269.3 54.7H268L263.3 48.8V54.7H262.1V47H263.4L268.1 52.9V47H269.3V54.7ZM268.2 54.4H269V47.4H268.4V53.9L263.3 47.4H262.5V54.4H263.1V47.9L268.2 54.4Z" fill="#4B505B"/>
<path d="M275.9 54.5V48H273.1V47.2H279.5V48H276.7V54.6H275.9V54.5Z" fill="#4B505B"/>
<path d="M276.9 54.7H275.7V48.1H273V47H279.7V48.1H276.9V54.7ZM276 54.4H276.6V47.8H279.4V47.3H273.3V47.8H276.1V54.4H276Z" fill="#4B505B"/>
<path d="M281.7 54.5L285.1 47.2H286.2L289.6 54.5H288.6L287.6 52.4H283.7L282.7 54.5H281.7ZM284 51.6H287.2L285.6 48L284 51.6Z" fill="#4B505B"/>
<path d="M289.8 54.7H288.5L287.5 52.6H283.8L282.8 54.7H281.5L285 47.1H286.3V47.2L289.8 54.7ZM288.6 54.4H289.3L286.1 47.4H285.2L282 54.4H282.7L283.7 52.3H287.8L288.6 54.4ZM287.4 51.8H283.7L285.6 47.7L287.4 51.8ZM284.2 51.5H287L285.6 48.4L284.2 51.5Z" fill="#4B505B"/>
<path d="M293.4 54.5V47.2H294.3V53.7H298.6V54.5H293.4Z" fill="#4B505B"/>
<path d="M298.8 54.7H293.3V47H294.5V53.5H298.8V54.7ZM293.5 54.4H298.4V53.9H294.1V47.4H293.5V54.4Z" fill="#4B505B"/>
<path d="M3.15876e-06 22.2C0.100003 21.1 75.5 33.9 179.1 33.9C254.7 33.9 316.6 27 357.8 21C316.2 29.2 254.6 38.5 179.6 38.8C79 39.2 -0.0999968 23.3 3.15876e-06 22.2Z" fill="#B5DA48"/>
</g>
<defs>
<clipPath id="clip0_41_382">
<rect width="357.8" height="54.8" fill="white"/>
</clipPath>
</defs>
</svg>
