<?xml version="1.0" standalone="no"?>
<!DOCTYPE svg PUBLIC "-//W3C//DTD SVG 20010904//EN"
 "http://www.w3.org/TR/2001/REC-SVG-20010904/DTD/svg10.dtd">
<svg version="1.0" xmlns="http://www.w3.org/2000/svg"
 width="337.000000pt" height="17.000000pt" viewBox="0 0 337.000000 17.000000"
 preserveAspectRatio="xMidYMid meet">

<g transform="translate(0.000000,17.000000) scale(0.100000,-0.100000)"
fill="#000000" stroke="none">
<path d="M0 163 c0 -5 6 -10 13 -11 6 -1 23 -3 37 -6 1003 -172 2046 -186
3045 -40 263 38 255 45 -21 14 -749 -82 -1534 -91 -2349 -29 -267 20 -659 62
-702 75 -13 3 -23 2 -23 -3z"/>
<path d="M3315 150 l-30 -8 37 -1 c20 0 40 4 43 9 7 11 -6 11 -50 0z"/>
</g>
</svg>
